<?xml version="1.0" encoding="UTF-8"?>
<svg width="766px" height="418px" viewBox="0 0 766 418" xmlns="http://www.w3.org/2000/svg" xmlns:xlink="http://www.w3.org/1999/xlink" version="1.1">
 <!-- Generated by Pixelmator Pro 2.0.8 -->
 <g id="group">
  <g id="SvgjsG1896-copy">
   <path id="Path" d="M3 6.011 L238.86 6.01 C252.558 6.01 265.433 8.886 277.487 14.639 289.54 20.392 300.086 27.925 309.126 37.239 318.166 46.553 325.289 57.236 330.493 69.29 335.698 81.343 338.301 93.397 338.301 105.45 338.301 130.653 332 151.061 319.399 166.675 306.798 182.29 290.362 193.658 270.09 200.781 296.388 204.616 318.442 216.121 336.246 235.297 354.051 254.472 362.955 278.306 362.955 306.794 362.955 321.039 360.079 334.599 354.326 347.474 348.573 360.35 340.903 371.718 331.315 381.58 321.727 391.441 310.359 399.386 297.21 405.412 284.061 411.438 270.09 414.452 255.298 414.452 L3.001 414.452 3.001 6.011 Z M404.045 6.011 L639.905 6.01 C653.603 6.01 666.478 8.886 678.531 14.639 690.585 20.392 701.131 27.925 710.171 37.239 719.211 46.553 726.334 57.236 731.538 69.29 736.743 81.343 739.346 93.397 739.346 105.45 739.346 130.653 733.045 151.061 720.444 166.675 707.843 182.29 691.407 193.658 671.135 200.781 697.433 204.616 719.487 216.121 737.291 235.297 755.096 254.472 764 278.306 764 306.794 764 321.039 761.124 334.599 755.371 347.474 749.618 360.35 741.948 371.718 732.36 381.58 722.772 391.441 711.404 399.386 698.255 405.412 685.106 411.438 671.135 414.452 656.342 414.452 L404.046 414.452 404.046 6.011 Z" fill="#ffffff" fill-opacity="1" stroke="none"/>
  </g>
 </g>
</svg>
